<?xml version="1.0" encoding="UTF-8" standalone="no"?>
<!DOCTYPE svg PUBLIC "-//W3C//DTD SVG 1.1//EN"
 "http://www.w3.org/Graphics/SVG/1.1/DTD/svg11.dtd">
<!-- Generated by graphviz version 2.40.1 (20161225.0304)
 -->
<!-- Title: Tree Pages: 1 -->
<svg width="504pt" height="269pt"
 viewBox="0.00 0.00 504.00 269.00" xmlns="http://www.w3.org/2000/svg" xmlns:xlink="http://www.w3.org/1999/xlink">
<g id="graph0" class="graph" transform="scale(1 1) rotate(0) translate(4 265)">
<title>Tree</title>
<polygon fill="#ffffff" stroke="transparent" points="-4,4 -4,-265 500,-265 500,4 -4,4"/>
<!-- 0 -->
<g id="node1" class="node">
<title>0</title>
<polygon fill="none" stroke="#000000" points="313.5,-261 166.5,-261 166.5,-193 313.5,-193 313.5,-261"/>
<text text-anchor="middle" x="240" y="-245.8" font-family="Times,serif" font-size="14.00" fill="#000000">Longitude &lt;= &#45;121.865</text>
<text text-anchor="middle" x="240" y="-230.8" font-family="Times,serif" font-size="14.00" fill="#000000">mse = 1.332</text>
<text text-anchor="middle" x="240" y="-215.8" font-family="Times,serif" font-size="14.00" fill="#000000">samples = 20640</text>
<text text-anchor="middle" x="240" y="-200.8" font-family="Times,serif" font-size="14.00" fill="#000000">value = 2.069</text>
</g>
<!-- 1 -->
<g id="node2" class="node">
<title>1</title>
<polygon fill="none" stroke="#000000" points="231.5,-157 84.5,-157 84.5,-89 231.5,-89 231.5,-157"/>
<text text-anchor="middle" x="158" y="-141.8" font-family="Times,serif" font-size="14.00" fill="#000000">Longitude &lt;= &#45;122.605</text>
<text text-anchor="middle" x="158" y="-126.8" font-family="Times,serif" font-size="14.00" fill="#000000">mse = 1.503</text>
<text text-anchor="middle" x="158" y="-111.8" font-family="Times,serif" font-size="14.00" fill="#000000">samples = 4834</text>
<text text-anchor="middle" x="158" y="-96.8" font-family="Times,serif" font-size="14.00" fill="#000000">value = 2.474</text>
</g>
<!-- 0&#45;&gt;1 -->
<g id="edge1" class="edge">
<title>0&#45;&gt;1</title>
<path fill="none" stroke="#000000" d="M213.1501,-192.9465C206.1417,-184.0578 198.5045,-174.3716 191.209,-165.1188"/>
<polygon fill="#000000" stroke="#000000" points="193.8502,-162.8157 184.9102,-157.13 188.3533,-167.1498 193.8502,-162.8157"/>
<text text-anchor="middle" x="181.9737" y="-178.2569" font-family="Times,serif" font-size="14.00" fill="#000000">True</text>
</g>
<!-- 4 -->
<g id="node5" class="node">
<title>4</title>
<polygon fill="none" stroke="#000000" points="396.5,-157 249.5,-157 249.5,-89 396.5,-89 396.5,-157"/>
<text text-anchor="middle" x="323" y="-141.8" font-family="Times,serif" font-size="14.00" fill="#000000">Longitude &lt;= &#45;118.905</text>
<text text-anchor="middle" x="323" y="-126.8" font-family="Times,serif" font-size="14.00" fill="#000000">mse = 1.214</text>
<text text-anchor="middle" x="323" y="-111.8" font-family="Times,serif" font-size="14.00" fill="#000000">samples = 15806</text>
<text text-anchor="middle" x="323" y="-96.8" font-family="Times,serif" font-size="14.00" fill="#000000">value = 1.945</text>
</g>
<!-- 0&#45;&gt;4 -->
<g id="edge4" class="edge">
<title>0&#45;&gt;4</title>
<path fill="none" stroke="#000000" d="M267.1773,-192.9465C274.2712,-184.0578 282.0015,-174.3716 289.386,-165.1188"/>
<polygon fill="#000000" stroke="#000000" points="292.2594,-167.1293 295.7616,-157.13 286.7882,-162.7628 292.2594,-167.1293"/>
<text text-anchor="middle" x="298.5516" y="-178.2738" font-family="Times,serif" font-size="14.00" fill="#000000">False</text>
</g>
<!-- 2 -->
<g id="node3" class="node">
<title>2</title>
<polygon fill="none" stroke="#000000" points="98,-53 0,-53 0,0 98,0 98,-53"/>
<text text-anchor="middle" x="49" y="-37.8" font-family="Times,serif" font-size="14.00" fill="#000000">mse = 0.596</text>
<text text-anchor="middle" x="49" y="-22.8" font-family="Times,serif" font-size="14.00" fill="#000000">samples = 640</text>
<text text-anchor="middle" x="49" y="-7.8" font-family="Times,serif" font-size="14.00" fill="#000000">value = 1.485</text>
</g>
<!-- 1&#45;&gt;2 -->
<g id="edge2" class="edge">
<title>1&#45;&gt;2</title>
<path fill="none" stroke="#000000" d="M119.5707,-88.9777C108.9173,-79.546 97.3641,-69.3178 86.7499,-59.9208"/>
<polygon fill="#000000" stroke="#000000" points="89.0207,-57.2566 79.2133,-53.2485 84.3806,-62.4978 89.0207,-57.2566"/>
</g>
<!-- 3 -->
<g id="node4" class="node">
<title>3</title>
<polygon fill="none" stroke="#000000" points="221.5,-53 116.5,-53 116.5,0 221.5,0 221.5,-53"/>
<text text-anchor="middle" x="169" y="-37.8" font-family="Times,serif" font-size="14.00" fill="#000000">mse = 1.469</text>
<text text-anchor="middle" x="169" y="-22.8" font-family="Times,serif" font-size="14.00" fill="#000000">samples = 4194</text>
<text text-anchor="middle" x="169" y="-7.8" font-family="Times,serif" font-size="14.00" fill="#000000">value = 2.625</text>
</g>
<!-- 1&#45;&gt;3 -->
<g id="edge3" class="edge">
<title>1&#45;&gt;3</title>
<path fill="none" stroke="#000000" d="M161.8782,-88.9777C162.828,-80.6449 163.8488,-71.6903 164.8124,-63.2364"/>
<polygon fill="#000000" stroke="#000000" points="168.2958,-63.5806 165.951,-53.2485 161.3408,-62.7877 168.2958,-63.5806"/>
</g>
<!-- 5 -->
<g id="node6" class="node">
<title>5</title>
<polygon fill="none" stroke="#000000" points="365.5,-53 260.5,-53 260.5,0 365.5,0 365.5,-53"/>
<text text-anchor="middle" x="313" y="-37.8" font-family="Times,serif" font-size="14.00" fill="#000000">mse = 0.727</text>
<text text-anchor="middle" x="313" y="-22.8" font-family="Times,serif" font-size="14.00" fill="#000000">samples = 4967</text>
<text text-anchor="middle" x="313" y="-7.8" font-family="Times,serif" font-size="14.00" fill="#000000">value = 1.421</text>
</g>
<!-- 4&#45;&gt;5 -->
<g id="edge5" class="edge">
<title>4&#45;&gt;5</title>
<path fill="none" stroke="#000000" d="M319.4744,-88.9777C318.6109,-80.6449 317.6829,-71.6903 316.8069,-63.2364"/>
<polygon fill="#000000" stroke="#000000" points="320.2841,-62.8344 315.7719,-53.2485 313.3213,-63.556 320.2841,-62.8344"/>
</g>
<!-- 6 -->
<g id="node7" class="node">
<title>6</title>
<polygon fill="none" stroke="#000000" points="496,-53 384,-53 384,0 496,0 496,-53"/>
<text text-anchor="middle" x="440" y="-37.8" font-family="Times,serif" font-size="14.00" fill="#000000">mse = 1.253</text>
<text text-anchor="middle" x="440" y="-22.8" font-family="Times,serif" font-size="14.00" fill="#000000">samples = 10839</text>
<text text-anchor="middle" x="440" y="-7.8" font-family="Times,serif" font-size="14.00" fill="#000000">value = 2.185</text>
</g>
<!-- 4&#45;&gt;6 -->
<g id="edge6" class="edge">
<title>4&#45;&gt;6</title>
<path fill="none" stroke="#000000" d="M364.2498,-88.9777C375.7961,-79.4545 388.3271,-69.1191 399.811,-59.6473"/>
<polygon fill="#000000" stroke="#000000" points="402.0816,-62.3115 407.5692,-53.2485 397.6276,-56.9113 402.0816,-62.3115"/>
</g>
</g>
</svg>
